<!-- <svg width="23" height="23" viewBox="0 0 23 23" fill="none" xmlns="http://www.w3.org/2000/svg"> -->
<svg viewBox="0 0 23 23" fill="currentColor" xmlns="http://www.w3.org/2000/svg">
<g clip-path="url(#clip0_1_1342)">
<path d="M11.5003 1.91669C16.7932 1.91669 21.0837 6.20715 21.0837 11.5C21.0837 16.7929 16.7932 21.0834 11.5003 21.0834H3.83366C3.32533 21.0834 2.83782 20.8814 2.47837 20.522C2.11893 20.1625 1.91699 19.675 1.91699 19.1667V11.5C1.91699 6.20715 6.20745 1.91669 11.5003 1.91669ZM11.5003 3.83335C9.467 3.83335 7.51695 4.64109 6.07917 6.07887C4.64139 7.51665 3.83366 9.46669 3.83366 11.5V19.1667H11.5003C13.5337 19.1667 15.4837 18.359 16.9215 16.9212C18.3593 15.4834 19.167 13.5333 19.167 11.5C19.167 9.46669 18.3593 7.51665 16.9215 6.07887C15.4837 4.64109 13.5337 3.83335 11.5003 3.83335ZM11.5003 13.4167C11.7446 13.417 11.9795 13.5105 12.1571 13.6782C12.3348 13.8458 12.4416 14.075 12.4559 14.3189C12.4703 14.5627 12.3909 14.8028 12.2342 14.9901C12.0774 15.1774 11.855 15.2978 11.6125 15.3266L11.5003 15.3334H8.62533C8.38107 15.3331 8.14613 15.2396 7.96851 15.0719C7.7909 14.9042 7.68402 14.675 7.6697 14.4312C7.65539 14.1873 7.73472 13.9472 7.8915 13.7599C8.04827 13.5726 8.27065 13.4522 8.5132 13.4234L8.62533 13.4167H11.5003ZM14.3753 9.58335C14.5012 9.58335 14.6258 9.60814 14.7421 9.6563C14.8583 9.70446 14.964 9.77505 15.053 9.86404C15.142 9.95303 15.2126 10.0587 15.2607 10.1749C15.3089 10.2912 15.3337 10.4158 15.3337 10.5417C15.3337 10.6675 15.3089 10.7922 15.2607 10.9084C15.2126 11.0247 15.142 11.1303 15.053 11.2193C14.964 11.3083 14.8583 11.3789 14.7421 11.4271C14.6258 11.4752 14.5012 11.5 14.3753 11.5H8.62533C8.49948 11.5 8.37486 11.4752 8.25859 11.4271C8.14232 11.3789 8.03667 11.3083 7.94768 11.2193C7.85869 11.1303 7.7881 11.0247 7.73994 10.9084C7.69178 10.7922 7.66699 10.6675 7.66699 10.5417C7.66699 10.4158 7.69178 10.2912 7.73994 10.1749C7.7881 10.0587 7.85869 9.95303 7.94768 9.86404C8.03667 9.77505 8.14232 9.70446 8.25859 9.6563C8.37486 9.60814 8.49948 9.58335 8.62533 9.58335H14.3753Z" />
</g>
<defs>
<clipPath id="clip0_1_1342">
<rect width="23" height="23" fill="white"/>
</clipPath>
</defs>
</svg>
