<svg viewBox="0 0 24 24" fill="currentColor" xmlns="http://www.w3.org/2000/svg">
<path d="M12 21C9.5 21 7.375 20.125 5.625 18.375C3.875 16.625 3 14.5 3 12C3 9.5 3.875 7.375 5.625 5.625C7.375 3.875 9.5 3 12 3C12.1334 3 12.275 3.00417 12.425 3.0125C12.575 3.02084 12.7667 3.03333 13 3.05C12.4 3.58333 11.9334 4.24167 11.6 5.025C11.2667 5.80835 11.1 6.63335 11.1 7.5C11.1 9 11.625 10.275 12.675 11.325C13.725 12.375 15 12.9 16.5 12.9C17.3666 12.9 18.1917 12.7458 18.975 12.4375C19.7584 12.1292 20.4167 11.7 20.95 11.15C20.9667 11.35 20.9791 11.5125 20.9875 11.6375C20.9958 11.7625 21 11.8834 21 12C21 14.5 20.125 16.625 18.375 18.375C16.625 20.125 14.5 21 12 21Z" />
</svg>
