<svg viewBox="0 0 16 16" fill="currentColor" xmlns="http://www.w3.org/2000/svg">
<path fill-rule="evenodd" clip-rule="evenodd" d="M8.75006 3.16662C8.75006 2.75241 8.41427 2.41662 8.00006 2.41662C7.58585 2.41662 7.25006 2.75241 7.25006 3.16662V7.59005L6.38299 6.65628C6.10114 6.35275 5.62659 6.33517 5.32306 6.61703C5.01952 6.89888 5.00195 7.37343 5.2838 7.67696L7.45047 10.0103C7.59237 10.1631 7.79151 10.25 8.00006 10.25C8.20861 10.25 8.40775 10.1631 8.54966 10.0103L10.7163 7.67696C10.9982 7.37343 10.9806 6.89888 10.6771 6.61703C10.3735 6.33517 9.89899 6.35275 9.61713 6.65628L8.75006 7.59005V3.16662ZM3.91669 9.83329C3.91669 9.41908 3.5809 9.08329 3.16669 9.08329C2.75247 9.08329 2.41669 9.41908 2.41669 9.83329V10.8333C2.41669 12.3521 3.64792 13.5833 5.16669 13.5833H10.8334C12.3522 13.5833 13.5834 12.3521 13.5834 10.8333V9.83329C13.5834 9.41908 13.2476 9.08329 12.8334 9.08329C12.4191 9.08329 12.0834 9.41908 12.0834 9.83329V10.8333C12.0834 11.5237 11.5237 12.0833 10.8334 12.0833H5.16669C4.47633 12.0833 3.91669 11.5237 3.91669 10.8333V9.83329Z" />
</svg>
