<svg viewBox="0 0 17 16" fill="currentColor" xmlns="http://www.w3.org/2000/svg">
<path fill-rule="evenodd" clip-rule="evenodd" d="M4.80456 5.0059C4.71882 5.01336 4.63352 4.98736 4.56651 4.93336L2.49984 3.26669C2.45845 3.24015 2.42331 3.20495 2.39684 3.16352C2.37037 3.12209 2.3532 3.0754 2.34651 3.02669C2.3423 2.98229 2.34723 2.9375 2.36099 2.89508C2.37474 2.85266 2.39704 2.8135 2.42651 2.78003C3.15783 1.92929 4.05991 1.24188 5.07417 0.762427C6.08842 0.282978 7.19218 0.0222141 8.31377 -0.00293353C9.43536 -0.0280812 10.5497 0.18295 11.5844 0.616457C12.6191 1.04996 13.5511 1.69625 14.3198 2.51336C14.3509 2.54377 14.3755 2.58008 14.3924 2.62014C14.4092 2.66021 14.4179 2.70323 14.4179 2.74669C14.4179 2.79015 14.4092 2.83317 14.3924 2.87324C14.3755 2.91331 14.3509 2.94961 14.3198 2.98003L12.3732 4.80669C12.3422 4.83794 12.3053 4.86273 12.2647 4.87966C12.2241 4.89658 12.1805 4.90529 12.1365 4.90529C12.0925 4.90529 12.0489 4.89658 12.0083 4.87966C11.9677 4.86273 11.9308 4.83794 11.8998 4.80669C11.4663 4.33878 10.9401 3.96617 10.3548 3.71253C9.76943 3.45889 9.13775 3.32976 8.49984 3.33336C7.84377 3.33462 7.19533 3.47421 6.59684 3.74301C5.99835 4.01181 5.46327 4.40379 5.02651 4.89336C4.96983 4.95812 4.8903 4.99845 4.80456 5.0059ZM4.09237 9.69361C4.07584 9.75737 4.04149 9.8151 3.99334 9.86004L1.90667 11.74C1.86815 11.7721 1.82334 11.7958 1.77512 11.8096C1.72691 11.8234 1.67634 11.8269 1.62667 11.82C1.57539 11.8109 1.52696 11.7898 1.48528 11.7586C1.4436 11.7273 1.40983 11.6867 1.38667 11.64C0.802543 10.5157 0.498376 9.26704 0.500007 8.00004C0.510316 6.79979 0.790572 5.61725 1.32001 4.54004C1.34142 4.49464 1.37301 4.45478 1.41232 4.42356C1.45163 4.39235 1.4976 4.37061 1.54667 4.36004C1.5964 4.34896 1.64798 4.34921 1.69759 4.36075C1.74721 4.37229 1.7936 4.39483 1.83334 4.4267L3.96667 6.16004C4.0215 6.20157 4.06148 6.25967 4.08069 6.32572C4.09991 6.39176 4.09733 6.46224 4.07334 6.5267C3.91547 7.00192 3.83446 7.49929 3.83334 8.00004C3.83444 8.51059 3.92004 9.01744 4.08667 9.50004C4.10692 9.56271 4.1089 9.62986 4.09237 9.69361ZM16.5 7.00002C16.4983 6.91215 16.4626 6.82835 16.4005 6.76621C16.3383 6.70406 16.2545 6.66839 16.1667 6.66669H9.5C9.41159 6.66669 9.32681 6.70181 9.2643 6.76432C9.20179 6.82683 9.16667 6.91161 9.16667 7.00002V9.66669C9.16667 9.75509 9.20179 9.83988 9.2643 9.90239C9.32681 9.9649 9.41159 10 9.5 10H12.7267C12.5337 10.4089 12.2772 10.7847 11.9667 11.1134C11.9114 11.1746 11.8808 11.2542 11.8808 11.3367C11.8808 11.4192 11.9114 11.4988 11.9667 11.56L13.7467 13.56C13.7775 13.5952 13.8154 13.6234 13.8579 13.6429C13.9004 13.6625 13.9466 13.6728 13.9933 13.6734C14.0391 13.6741 14.0845 13.6657 14.1269 13.6485C14.1692 13.6313 14.2077 13.6058 14.24 13.5734C15.597 12.1808 16.4004 10.3418 16.5 8.40002V7.00002ZM10.6626 12.204C10.7331 12.2183 10.7974 12.2542 10.8466 12.3067L12.6666 14.3867C12.6989 14.4235 12.7227 14.4669 12.7364 14.5139C12.75 14.561 12.7531 14.6104 12.7455 14.6588C12.7379 14.7072 12.7197 14.7533 12.6922 14.7938C12.6647 14.8343 12.6286 14.8683 12.5866 14.8934C11.0019 15.833 9.14145 16.1969 7.31951 15.9236C5.49757 15.6503 3.82579 14.7566 2.58656 13.3934C2.55531 13.3624 2.53051 13.3255 2.51359 13.2849C2.49667 13.2443 2.48796 13.2007 2.48796 13.1567C2.48796 13.1127 2.49667 13.0691 2.51359 13.0285C2.53051 12.9879 2.55531 12.951 2.58656 12.92L4.58656 11.14C4.61697 11.109 4.65327 11.0843 4.69334 11.0675C4.73341 11.0506 4.77643 11.042 4.81989 11.042C4.86335 11.042 4.90637 11.0506 4.94644 11.0675C4.9865 11.0843 5.02281 11.109 5.05322 11.14C5.71737 11.8769 6.60106 12.3804 7.57357 12.5761C8.54607 12.7718 9.55575 12.6493 10.4532 12.2267C10.519 12.1976 10.5922 12.1896 10.6626 12.204Z" />
</svg>
