<svg viewBox="0 0 14 14" fill="currentColor" xmlns="http://www.w3.org/2000/svg">
<path fill-rule="evenodd" clip-rule="evenodd" d="M6.99996 2.41663C4.46865 2.41663 2.41663 4.46865 2.41663 6.99996C2.41663 9.53127 4.46865 11.5833 6.99996 11.5833C9.53127 11.5833 11.5833 9.53127 11.5833 6.99996C11.5833 4.46865 9.53127 2.41663 6.99996 2.41663ZM0.916626 6.99996C0.916626 3.64023 3.64023 0.916626 6.99996 0.916626C10.3597 0.916626 13.0833 3.64023 13.0833 6.99996C13.0833 10.3597 10.3597 13.0833 6.99996 13.0833C3.64023 13.0833 0.916626 10.3597 0.916626 6.99996ZM7 6.25C7.41421 6.25 7.75 6.58579 7.75 7V9.66667C7.75 10.0809 7.41421 10.4167 7 10.4167C6.58579 10.4167 6.25 10.0809 6.25 9.66667V7C6.25 6.58579 6.58579 6.25 7 6.25ZM7 3.58337C6.58579 3.58337 6.25 3.91916 6.25 4.33337C6.25 4.74759 6.58579 5.08337 7 5.08337H7.005C7.41921 5.08337 7.755 4.74759 7.755 4.33337C7.755 3.91916 7.41921 3.58337 7.005 3.58337H7Z" />
</svg>
