<svg viewBox="0 0 24 24" fill="currentCOlor" xmlns="http://www.w3.org/2000/svg">
<path fill-rule="evenodd" clip-rule="evenodd" d="M13 1.75V0.75H11V4.76025C9.72961 4.9341 8.56322 5.43446 7.58819 6.17397L5.45955 4.04533L4.75244 3.33823L3.33823 4.75244L4.04533 5.45955L6.17397 7.58819C5.43446 8.56322 4.9341 9.72962 4.76025 11H1.75H0.75V13H1.75H4.76023C4.93408 14.2705 5.43451 15.4371 6.17413 16.4122L4.04533 18.541L3.33823 19.2481L4.75244 20.6623L5.45955 19.9552L7.5884 17.8263C8.56339 18.5658 9.72971 19.0661 11 19.2399V23.2499H13V19.2399C14.2704 19.0661 15.4369 18.5657 16.412 17.8262L18.541 19.9552L19.2481 20.6623L20.6623 19.2481L19.9552 18.541L17.8262 16.412C18.5657 15.4369 19.0661 14.2704 19.2399 13H23.2499V11H19.2399C19.0661 9.72971 18.5658 8.56339 17.8263 7.5884L19.9552 5.45955L20.6623 4.75244L19.2481 3.33823L18.541 4.04533L16.4122 6.17413C15.4371 5.43451 14.2705 4.93408 13 4.76023V1.75ZM15.7665 8.26037L15.7398 8.23363C14.7804 7.28097 13.459 6.69238 12.0001 6.69238C11.172 6.69238 10.3882 6.88203 9.6897 7.22026C9.65336 7.49422 9.63461 7.77374 9.63461 8.05763C9.63461 11.5413 12.4587 14.3653 15.9423 14.3653C16.2263 14.3653 16.5059 14.3466 16.78 14.3102C17.1127 13.6231 17.3016 12.8534 17.3076 12.0402V11.9599C17.2969 10.517 16.7104 9.21098 15.7665 8.26037Z" />
</svg>
