<svg viewBox="0 0 25 24" fill="currentColor" xmlns="http://www.w3.org/2000/svg">
<path d="M21.6487 3.21745C21.5433 3.1167 21.4101 3.04695 21.2648 3.01639C21.1194 2.98584 20.9681 2.99574 20.8284 3.04495L3.6409 9.04495C3.49267 9.09892 3.36506 9.19491 3.275 9.32016C3.18495 9.44542 3.13672 9.59401 3.13672 9.7462C3.13672 9.89839 3.18495 10.047 3.275 10.1722C3.36506 10.2975 3.49267 10.3935 3.6409 10.4474L10.3518 13.0199L15.305 8.24995L16.4065 9.30745L11.43 14.0849L14.1175 20.5275C14.1754 20.667 14.2756 20.7866 14.4051 20.8709C14.5347 20.9551 14.6876 21.0001 14.844 20.9999C15.0019 20.9968 15.1551 20.9479 15.2834 20.8595C15.4117 20.7711 15.5091 20.6475 15.5628 20.5049L21.8128 4.00495C21.866 3.87226 21.8788 3.72777 21.8498 3.58834C21.8207 3.44891 21.751 3.32028 21.6487 3.21745Z" />
</svg>
