<svg viewBox="0 0 16 16" fill="currentColor" xmlns="http://www.w3.org/2000/svg">
<path fill-rule="evenodd" clip-rule="evenodd" d="M11.6017 6.79689V6.79766C12.2271 7.58219 12.6012 8.57609 12.6012 9.65684C12.6012 10.7376 12.216 11.761 11.5733 12.5509L11.5179 12.619L11.5034 12.5325C11.4909 12.4591 11.4761 12.3847 11.4593 12.3099C11.1378 10.8969 10.0898 9.68521 8.36523 8.70416C7.2007 8.04348 6.53408 7.24783 6.35904 6.34404C6.24592 5.75947 6.33008 5.17242 6.49247 4.66952C6.65486 4.16682 6.89644 3.74561 7.10158 3.49215L7.77242 2.67176C7.89014 2.52797 8.11024 2.52797 8.22796 2.67176L11.6019 6.79708L11.6017 6.79689ZM12.6629 5.97727V5.97689L8.16622 0.478823C8.08033 0.373758 7.91967 0.373758 7.83378 0.478823L3.33708 5.97708V5.97746L3.32251 5.99568C2.49522 7.02236 2 8.32723 2 9.74771C2 13.0559 4.68624 15.7379 8 15.7379C11.3138 15.7379 14 13.0559 14 9.74771C14 8.32723 13.5048 7.02236 12.6773 5.99549L12.6625 5.97727H12.6629ZM4.41323 6.77906L4.81547 6.2871L4.82754 6.37797C4.83713 6.44987 4.84883 6.52215 4.86263 6.59481C5.1228 7.96027 6.05247 9.09873 7.60677 9.98047C8.95785 10.7493 9.7445 11.6335 9.97111 12.6033C10.0656 13.008 10.0825 13.4062 10.0417 13.7544L10.0392 13.7758L10.0196 13.7854C9.40994 14.0834 8.72433 14.2505 7.99981 14.2505C5.4587 14.2505 3.39863 12.1939 3.39863 9.65684C3.39863 8.56765 3.77843 7.56666 4.41304 6.77925L4.41323 6.77906Z" />
</svg>
