<svg viewBox="0 0 24 24" fill="none" stroke="currentColor" xmlns="http://www.w3.org/2000/svg">
<path d="M12 12C11.9952 10.2843 12.6692 8.63623 13.875 7.41564L18.2438 3.04689C18.4185 2.86687 18.6277 2.72375 18.8588 2.62602C19.0898 2.52829 19.3382 2.47794 19.5891 2.47794C19.84 2.47794 20.0883 2.52829 20.3194 2.62602C20.5505 2.72375 20.7596 2.86687 20.9344 3.04689C21.1144 3.22166 21.2575 3.43078 21.3553 3.66186C21.453 3.89295 21.5034 4.1413 21.5034 4.3922C21.5034 4.6431 21.453 4.89145 21.3553 5.12254C21.2575 5.35362 21.1144 5.56275 20.9344 5.73751L16.5844 10.125C15.3644 11.3317 13.716 12.0059 12 12Z" stroke-width="2" stroke-miterlimit="10" stroke-linecap="round" stroke-linejoin="round"/>
<path d="M14.6813 2.13751H5.7375C5.2672 2.13751 4.80151 2.23014 4.36702 2.41012C3.93252 2.59009 3.53772 2.85389 3.20517 3.18644C2.53356 3.85805 2.15625 4.76896 2.15625 5.71876V14.6625C2.15625 15.6123 2.53356 16.5232 3.20517 17.1948C3.87679 17.8665 4.78769 18.2438 5.7375 18.2438H7.52813V20.925L12.9375 18.2438H18.3094C19.2592 18.2438 20.1701 17.8665 20.8417 17.1948C21.5133 16.5232 21.8906 15.6123 21.8906 14.6625V9.29064" stroke-width="2" stroke-miterlimit="10" stroke-linecap="round" stroke-linejoin="round"/>
</svg>
